<svg xmlns="http://www.w3.org/2000/svg" version="1.1" xmlns:xlink="http://www.w3.org/1999/xlink" width="748.8225109811899" height="200" viewBox="-0.030249983072280884 11.444411277770996 106.89568328857422 21.22119903564453"><path d="M13.44 11.60L13.44 11.60Q13.61 11.37 14.30 11.48Q14.98 11.60 15.34 12.08Q15.70 12.56 15.77 13.22Q15.84 13.89 15.79 14.59Q15.74 15.29 15.65 15.90Q15.57 16.50 15.35 17.50Q15.14 18.50 14.66 20.31Q14.18 22.13 13.04 24.58Q11.89 27.03 11.28 27.95Q10.66 28.87 10.04 29.52Q9.41 30.18 8.52 30.93Q7.62 31.68 6.45 32.12Q5.27 32.56 4.06 32.65Q2.85 32.73 2.19 32.40Q1.52 32.07 1.02 31.73Q0.51 31.39 0.21 30.69Q-0.10 30-0.01 28.96Q0.08 27.91 0.03 27.83Q-0.02 27.75 0.63 26.44Q1.29 25.12 1.83 24.59Q2.36 24.06 3.88 22.97Q5.39 21.88 8.43 20.68Q11.46 19.49 8.10 21.01Q4.73 22.52 3.54 23.76Q2.36 25 2.07 26.33Q1.78 27.66 1.81 28.52Q1.84 29.38 2.05 29.71Q2.27 30.04 2.51 30.17Q2.75 30.29 3.35 30.31Q3.95 30.33 5.39 29.87Q6.84 29.41 8.00 28.12Q9.16 26.82 9.80 25.85Q10.45 24.88 10.93 23.77Q11.41 22.66 11.54 22.09Q11.68 21.52 11.94 20.63Q12.21 19.75 12.70 17.70Q13.18 15.64 13.25 14.78Q13.32 13.91 13.32 13.48Q13.32 13.05 13.16 12.67Q13.01 12.29 13.13 12.06Q13.26 11.84 13.44 11.60ZM16.88 22.56L16.88 22.56Q17.25 22.21 17.78 22.11Q18.32 22.01 18.67 22.17Q19.02 22.32 19.27 22.72Q19.51 23.13 20.49 23.11Q21.46 23.09 22.92 23.12Q24.38 23.14 22.30 23.20Q20.23 23.26 19.95 23.37Q19.67 23.48 19.72 24.06Q19.77 24.65 19.79 25.30Q19.82 25.96 19.80 26.76Q19.79 27.56 19.69 27.95Q19.59 28.34 19.39 28.77Q19.20 29.20 18.82 29.68Q18.44 30.16 17.88 30.57Q17.32 30.98 16.86 31.18Q16.39 31.39 15.84 31.20Q15.29 31.02 14.95 30.62Q14.61 30.21 14.40 29.79Q14.20 29.36 14.23 28.28Q14.26 27.21 14.46 26.55Q14.67 25.90 15.10 25.19Q15.53 24.47 15.35 24.52Q15.18 24.57 15.26 24.47Q15.35 24.38 15.94 23.63Q16.52 22.89 16.88 22.56ZM17.85 25.63L17.85 25.63Q17.42 25.10 16.78 25.92Q16.13 26.74 16.01 27.66Q15.88 28.57 16.10 28.95Q16.33 29.32 16.57 29.38Q16.82 29.43 17.27 29.05Q17.71 28.67 18.00 27.40Q18.28 26.13 17.85 25.63ZM28.61 22.32L28.61 22.32Q28.83 22.15 29.14 22.16Q29.45 22.17 29.69 22.39Q29.92 22.62 30.27 22.97Q30.63 23.32 31.25 23.43Q31.88 23.54 33.36 23.25Q34.84 22.97 33.34 23.36Q31.84 23.75 30.85 23.98Q29.86 24.22 29.35 24.75Q28.83 25.27 28.16 26.09Q27.50 26.91 26.64 28.20Q25.78 29.49 25.51 29.96Q25.23 30.43 24.80 30.74Q24.38 31.05 23.87 30.82Q23.36 30.59 23.13 30.12Q22.89 29.65 22.85 29.02Q22.81 28.40 22.46 27.38Q22.11 26.37 21.61 25.43Q21.11 24.49 21.38 24.02Q21.64 23.55 22.19 23.48Q22.73 23.40 23.13 23.87Q23.52 24.34 23.87 25.34Q24.22 26.35 24.32 26.87Q24.41 27.38 24.71 27.19Q25 26.99 26.52 24.92Q28.05 22.85 28.22 22.67Q28.40 22.48 28.61 22.32ZM36.62 15.55L36.62 15.55Q37.05 15.90 37.14 17.08Q37.23 18.26 37.95 19.38Q38.67 20.51 39.65 21.17Q40.63 21.84 41.44 22.11Q42.25 22.38 41.39 22.24Q40.53 22.09 39.68 21.55Q38.83 21.02 37.85 19.95Q36.88 18.89 36.43 18.39Q35.98 17.89 35.79 17.83Q35.61 17.77 35.48 17.74Q35.35 17.71 34.89 17.35Q34.43 16.99 34.56 16.46Q34.69 15.94 34.90 15.68Q35.12 15.43 35.65 15.30Q36.19 15.18 36.62 15.55ZM33.50 21.46L33.50 21.46Q33.93 21.37 34.48 21.52Q35.04 21.68 34.68 22.66Q34.32 23.63 33.89 25.20Q33.46 26.76 33.08 27.73Q32.70 28.71 32.23 29.42Q31.76 30.14 31.33 30.20Q30.90 30.25 30.73 30.17Q30.57 30.08 30.70 29.26Q30.84 28.44 31.28 26.75Q31.72 25.06 32.11 23.81Q32.50 22.56 32.12 22.53Q31.74 22.50 32.41 22.03Q33.09 21.56 33.50 21.46ZM42.52 21.66L42.52 21.66Q42.97 21.54 43.51 21.62Q44.04 21.70 44.37 21.95Q44.69 22.21 44.98 22.95Q45.27 23.69 44.72 23.95Q44.16 24.20 43.71 23.77Q43.26 23.34 42.77 23.59Q42.29 23.85 41.81 24.11Q41.33 24.38 40.63 24.94Q39.92 25.51 39.18 26.39Q38.44 27.27 38.36 27.51Q38.28 27.75 38.74 27.44Q39.20 27.13 40.15 26.49Q41.09 25.86 42.53 25.20Q43.96 24.53 44.35 24.68Q44.73 24.82 45 25.21Q45.27 25.61 45.31 25.89Q45.35 26.17 45.22 26.34Q45.10 26.50 44.93 27.09Q44.77 27.68 44.96 28.22Q45.16 28.77 45.46 28.97Q45.76 29.18 46.29 29.09Q46.82 29.00 47.59 28.29Q48.36 27.58 47.52 28.62Q46.68 29.67 46.19 29.95Q45.70 30.23 45.43 30.22Q45.16 30.21 44.72 30.05Q44.28 29.88 43.89 29.53Q43.50 29.18 43.27 28.67Q43.05 28.16 42.97 27.92Q42.89 27.68 42.61 27.38Q42.32 27.09 41.91 27.26Q41.50 27.42 40.48 28.16Q39.45 28.91 38.56 29.38Q37.68 29.86 36.97 30.05Q36.27 30.23 36.06 30.18Q35.86 30.12 35.62 29.74Q35.37 29.36 35.33 28.91Q35.29 28.46 35.46 28.00Q35.63 27.54 36.71 26.16Q37.79 24.79 38.80 23.91Q39.80 23.03 40.94 22.41Q42.07 21.80 42.52 21.66ZM50.18 21.95L50.18 21.95Q50.59 21.76 51.22 22.03Q51.86 22.30 51.49 23.05Q51.13 23.79 50.31 25.50Q49.49 27.21 50.15 26.44Q50.80 25.66 51.73 24.86Q52.66 24.06 53.07 23.83Q53.48 23.59 53.96 23.48Q54.43 23.36 55.04 23.54Q55.64 23.71 56.07 24.52Q56.50 25.33 56.53 27.20Q56.56 29.06 57.45 29.02Q58.34 28.98 59.18 28.37Q60.02 27.75 60.43 27.12Q60.84 26.48 60.78 26.78Q60.72 27.07 60.33 27.64Q59.94 28.20 58.67 29.39Q57.40 30.59 56.47 30.61Q55.55 30.63 55.13 29.86Q54.71 29.10 54.58 27.43Q54.45 25.76 54.14 25.73Q53.83 25.70 52.77 26.36Q51.72 27.01 50.84 28.07Q49.96 29.12 49.40 29.85Q48.85 30.59 48.40 30.74Q47.95 30.90 47.67 30.51Q47.38 30.12 47.47 29.55Q47.56 28.98 47.81 27.81Q48.07 26.64 48.54 25.34Q49.00 24.04 48.32 24.49Q47.64 24.94 46.65 25.85Q45.66 26.76 47.35 24.99Q49.04 23.22 49.23 22.93Q49.41 22.64 49.59 22.39Q49.77 22.15 50.18 21.95ZM81.35 15.84L81.35 15.84Q83.38 16.02 84.01 16.11Q84.65 16.21 86.25 16.35Q87.85 16.48 88.38 16.90Q88.91 17.32 88.42 17.69Q87.93 18.05 87.12 18.05Q86.31 18.05 85.61 17.97Q84.90 17.89 84.52 17.87Q84.14 17.85 82.40 17.73Q80.66 17.62 80.03 17.64Q79.39 17.66 79.04 18.05Q78.69 18.44 78.14 19.04Q77.60 19.65 76.67 20.92Q75.74 22.19 74.79 23.77Q73.83 25.35 72.98 26.79Q72.13 28.22 72.13 29.02Q72.13 29.82 72.51 30.11Q72.89 30.39 73.50 30.14Q74.10 29.88 74.44 29.79Q74.79 29.71 75.42 29.36Q76.05 29.00 76.78 28.46Q77.50 27.91 76.71 28.76Q75.92 29.61 75.51 30.20Q75.10 30.78 73.96 31.69Q72.83 32.60 72.07 32.64Q71.31 32.68 70.71 32.28Q70.12 31.88 69.99 31.02Q69.86 30.16 69.86 29.47Q69.86 28.79 70.18 27.97Q70.49 27.15 71.00 26.26Q71.50 25.37 72.91 23.22Q74.32 21.07 75.53 19.17Q76.74 17.27 75.71 17.31Q74.69 17.36 72.74 17.39Q70.80 17.42 69.82 17.49Q68.85 17.56 68.21 17.85Q67.58 18.14 66.90 17.81Q66.23 17.48 66.12 17.28Q66.02 17.07 66.10 16.99Q66.19 16.91 66.78 16.46Q67.36 16.00 68.00 15.68Q68.63 15.37 72.34 15.43Q76.05 15.49 76.83 15.53Q77.60 15.57 78.46 15.62Q79.32 15.66 81.35 15.84ZM88.59 21.66L88.59 21.66Q89.04 21.54 89.58 21.62Q90.12 21.70 90.44 21.95Q90.76 22.21 91.05 22.95Q91.35 23.69 90.79 23.95Q90.23 24.20 89.79 23.77Q89.34 23.34 88.85 23.59Q88.36 23.85 87.88 24.11Q87.40 24.38 86.70 24.94Q86.00 25.51 85.25 26.39Q84.51 27.27 84.43 27.51Q84.36 27.75 84.81 27.44Q85.27 27.13 86.22 26.49Q87.17 25.86 88.60 25.20Q90.04 24.53 90.42 24.68Q90.80 24.82 91.07 25.21Q91.35 25.61 91.39 25.89Q91.43 26.17 91.30 26.34Q91.17 26.50 91.01 27.09Q90.84 27.68 91.04 28.22Q91.23 28.77 91.53 28.97Q91.84 29.18 92.36 29.09Q92.89 29.00 93.66 28.29Q94.43 27.58 93.59 28.62Q92.75 29.67 92.27 29.95Q91.78 30.23 91.50 30.22Q91.23 30.21 90.79 30.05Q90.35 29.88 89.96 29.53Q89.57 29.18 89.35 28.67Q89.12 28.16 89.04 27.92Q88.96 27.68 88.68 27.38Q88.40 27.09 87.99 27.26Q87.58 27.42 86.55 28.16Q85.53 28.91 84.64 29.38Q83.75 29.86 83.05 30.05Q82.34 30.23 82.14 30.18Q81.93 30.12 81.69 29.74Q81.45 29.36 81.41 28.91Q81.37 28.46 81.53 28.00Q81.70 27.54 82.78 26.16Q83.87 24.79 84.87 23.91Q85.88 23.03 87.01 22.41Q88.14 21.80 88.59 21.66ZM96.25 21.95L96.25 21.95Q96.66 21.76 97.29 22.03Q97.93 22.30 97.57 23.05Q97.21 23.79 96.39 25.50Q95.57 27.21 96.22 26.44Q96.88 25.66 97.80 24.86Q98.73 24.06 99.14 23.83Q99.55 23.59 100.03 23.48Q100.51 23.36 101.11 23.54Q101.72 23.71 102.15 24.52Q102.58 25.33 102.61 27.20Q102.64 29.06 103.53 29.02Q104.41 28.98 105.25 28.37Q106.09 27.75 106.50 27.12Q106.91 26.48 106.86 26.78Q106.80 27.07 106.41 27.64Q106.02 28.20 104.75 29.39Q103.48 30.59 102.55 30.61Q101.62 30.63 101.20 29.86Q100.78 29.10 100.65 27.43Q100.53 25.76 100.21 25.73Q99.90 25.70 98.85 26.36Q97.79 27.01 96.91 28.07Q96.04 29.12 95.48 29.85Q94.92 30.59 94.47 30.74Q94.02 30.90 93.74 30.51Q93.46 30.12 93.54 29.55Q93.63 28.98 93.89 27.81Q94.14 26.64 94.61 25.34Q95.08 24.04 94.39 24.49Q93.71 24.94 92.72 25.85Q91.74 26.76 93.43 24.99Q95.12 23.22 95.30 22.93Q95.49 22.64 95.66 22.39Q95.84 22.15 96.25 21.95Z" fill="black"></path></svg>